<mxfile host="app.diagrams.net" modified="2022-02-06T00:07:30.884Z" agent="5.0 (Macintosh; Intel Mac OS X 10_15_7) AppleWebKit/605.1.15 (KHTML, like Gecko) Version/15.3 Safari/605.1.15" etag="EO1OKtgvaN1p3aC0zZF0" version="16.5.3" type="github">
  <diagram id="WeiKo1XR5qHX8wsOx_it" name="Page-1">
    <mxGraphModel dx="1065" dy="639" grid="1" gridSize="10" guides="1" tooltips="1" connect="1" arrows="1" fold="1" page="1" pageScale="1" pageWidth="850" pageHeight="1100" math="0" shadow="0">
      <root>
        <mxCell id="0" />
        <mxCell id="1" parent="0" />
        <mxCell id="idISao-2lY-n5F_Df8VK-1" value="" style="html=1;outlineConnect=0;fillColor=#33FFFF;strokeColor=#007FFF;gradientDirection=north;strokeWidth=2;shape=mxgraph.networks.cloud;" parent="1" vertex="1">
          <mxGeometry x="67.5" y="10" width="85" height="50" as="geometry" />
        </mxCell>
        <mxCell id="idISao-2lY-n5F_Df8VK-2" value="" style="verticalAlign=top;verticalLabelPosition=bottom;labelPosition=center;align=center;html=1;outlineConnect=0;fillColor=#f8cecc;strokeColor=#FF0000;gradientDirection=north;strokeWidth=2;shape=mxgraph.networks.firewall;" parent="1" vertex="1">
          <mxGeometry x="260" y="20" width="100" height="100" as="geometry" />
        </mxCell>
        <mxCell id="idISao-2lY-n5F_Df8VK-3" value="" style="verticalAlign=top;verticalLabelPosition=bottom;labelPosition=center;align=center;html=1;outlineConnect=0;fillColor=#FFFF33;strokeColor=#0000FF;gradientDirection=north;strokeWidth=2;shape=mxgraph.networks.switch;" parent="1" vertex="1">
          <mxGeometry x="260" y="200" width="100" height="30" as="geometry" />
        </mxCell>
        <mxCell id="idISao-2lY-n5F_Df8VK-4" value="" style="fontColor=#0066CC;verticalAlign=top;verticalLabelPosition=bottom;labelPosition=center;align=center;html=1;outlineConnect=0;fillColor=#FFFF00;strokeColor=#0000CC;gradientColor=none;gradientDirection=north;strokeWidth=2;shape=mxgraph.networks.router;" parent="1" vertex="1">
          <mxGeometry x="260" y="320" width="100" height="30" as="geometry" />
        </mxCell>
        <mxCell id="idISao-2lY-n5F_Df8VK-5" value="" style="fontColor=#0066CC;verticalAlign=top;verticalLabelPosition=bottom;labelPosition=center;align=center;html=1;outlineConnect=0;fillColor=#99FF33;strokeColor=#0000CC;gradientColor=none;gradientDirection=north;strokeWidth=2;shape=mxgraph.networks.router;" parent="1" vertex="1">
          <mxGeometry x="455" y="200" width="100" height="30" as="geometry" />
        </mxCell>
        <mxCell id="idISao-2lY-n5F_Df8VK-6" value="" style="fontColor=#0066CC;verticalAlign=top;verticalLabelPosition=bottom;labelPosition=center;align=center;html=1;outlineConnect=0;fillColor=#CC0066;strokeColor=#0000FF;gradientColor=none;gradientDirection=north;strokeWidth=2;shape=mxgraph.networks.switch;" parent="1" vertex="1">
          <mxGeometry x="260" y="420" width="100" height="30" as="geometry" />
        </mxCell>
        <mxCell id="idISao-2lY-n5F_Df8VK-15" value="" style="fontColor=#0066CC;verticalAlign=top;verticalLabelPosition=bottom;labelPosition=center;align=center;html=1;outlineConnect=0;fillColor=#007FFF;strokeColor=#000099;gradientColor=none;gradientDirection=north;strokeWidth=2;shape=mxgraph.networks.switch;" parent="1" vertex="1">
          <mxGeometry x="560" y="315" width="100" height="30" as="geometry" />
        </mxCell>
        <mxCell id="idISao-2lY-n5F_Df8VK-17" value="" style="fontColor=#0066CC;verticalAlign=top;verticalLabelPosition=bottom;labelPosition=center;align=center;html=1;outlineConnect=0;fillColor=#33FF33;strokeColor=#000099;gradientColor=none;gradientDirection=north;strokeWidth=2;shape=mxgraph.networks.switch;" parent="1" vertex="1">
          <mxGeometry x="630" y="200" width="100" height="30" as="geometry" />
        </mxCell>
        <mxCell id="idISao-2lY-n5F_Df8VK-19" value="" style="fontColor=#0066CC;verticalAlign=top;verticalLabelPosition=bottom;labelPosition=center;align=center;html=1;outlineConnect=0;fillColor=#66FFB3;strokeColor=#0000CC;gradientColor=none;gradientDirection=north;strokeWidth=2;shape=mxgraph.networks.server;" parent="1" vertex="1">
          <mxGeometry x="755" y="80" width="50" height="50" as="geometry" />
        </mxCell>
        <mxCell id="idISao-2lY-n5F_Df8VK-25" value="" style="fontColor=#0066CC;verticalAlign=top;verticalLabelPosition=bottom;labelPosition=center;align=center;html=1;outlineConnect=0;fillColor=#CCCCCC;strokeColor=#6881B3;gradientColor=none;gradientDirection=north;strokeWidth=2;shape=mxgraph.networks.pc;" parent="1" vertex="1">
          <mxGeometry x="200" y="510" width="40" height="40" as="geometry" />
        </mxCell>
        <mxCell id="idISao-2lY-n5F_Df8VK-33" value="" style="endArrow=none;html=1;rounded=0;strokeColor=none;" parent="1" edge="1">
          <mxGeometry width="50" height="50" relative="1" as="geometry">
            <mxPoint x="520" y="330" as="sourcePoint" />
            <mxPoint x="570" y="280" as="targetPoint" />
          </mxGeometry>
        </mxCell>
        <mxCell id="idISao-2lY-n5F_Df8VK-35" value="" style="endArrow=none;html=1;rounded=0;exitX=0.5;exitY=0;exitDx=0;exitDy=0;exitPerimeter=0;" parent="1" source="idISao-2lY-n5F_Df8VK-3" target="idISao-2lY-n5F_Df8VK-2" edge="1">
          <mxGeometry width="50" height="50" relative="1" as="geometry">
            <mxPoint x="320" y="190" as="sourcePoint" />
            <mxPoint x="570" y="280" as="targetPoint" />
          </mxGeometry>
        </mxCell>
        <mxCell id="idISao-2lY-n5F_Df8VK-36" value="" style="endArrow=classic;startArrow=none;html=1;rounded=0;" parent="1" source="idISao-2lY-n5F_Df8VK-81" edge="1">
          <mxGeometry width="50" height="50" relative="1" as="geometry">
            <mxPoint x="310" y="200" as="sourcePoint" />
            <mxPoint x="310" y="120" as="targetPoint" />
          </mxGeometry>
        </mxCell>
        <mxCell id="idISao-2lY-n5F_Df8VK-38" value="" style="endArrow=classic;startArrow=classic;html=1;rounded=0;exitX=0.91;exitY=0.5;exitDx=0;exitDy=0;exitPerimeter=0;" parent="1" source="idISao-2lY-n5F_Df8VK-1" target="idISao-2lY-n5F_Df8VK-2" edge="1">
          <mxGeometry width="50" height="50" relative="1" as="geometry">
            <mxPoint x="520" y="330" as="sourcePoint" />
            <mxPoint x="570" y="280" as="targetPoint" />
          </mxGeometry>
        </mxCell>
        <mxCell id="idISao-2lY-n5F_Df8VK-40" value="" style="endArrow=classic;startArrow=classic;html=1;rounded=0;" parent="1" source="idISao-2lY-n5F_Df8VK-4" edge="1">
          <mxGeometry width="50" height="50" relative="1" as="geometry">
            <mxPoint x="310" y="310" as="sourcePoint" />
            <mxPoint x="310" y="230" as="targetPoint" />
          </mxGeometry>
        </mxCell>
        <mxCell id="idISao-2lY-n5F_Df8VK-41" value="" style="endArrow=classic;startArrow=classic;html=1;rounded=0;entryX=0.5;entryY=1;entryDx=0;entryDy=0;entryPerimeter=0;exitX=0.5;exitY=0;exitDx=0;exitDy=0;exitPerimeter=0;" parent="1" source="idISao-2lY-n5F_Df8VK-6" target="idISao-2lY-n5F_Df8VK-4" edge="1">
          <mxGeometry width="50" height="50" relative="1" as="geometry">
            <mxPoint x="520" y="330" as="sourcePoint" />
            <mxPoint x="570" y="280" as="targetPoint" />
          </mxGeometry>
        </mxCell>
        <mxCell id="idISao-2lY-n5F_Df8VK-42" value="" style="endArrow=classic;startArrow=classic;html=1;rounded=0;" parent="1" target="idISao-2lY-n5F_Df8VK-15" edge="1">
          <mxGeometry width="50" height="50" relative="1" as="geometry">
            <mxPoint x="360" y="330" as="sourcePoint" />
            <mxPoint x="410" y="280" as="targetPoint" />
          </mxGeometry>
        </mxCell>
        <mxCell id="idISao-2lY-n5F_Df8VK-45" value="" style="endArrow=classic;startArrow=classic;html=1;rounded=0;exitX=1;exitY=0.5;exitDx=0;exitDy=0;exitPerimeter=0;" parent="1" source="idISao-2lY-n5F_Df8VK-5" target="idISao-2lY-n5F_Df8VK-17" edge="1">
          <mxGeometry width="50" height="50" relative="1" as="geometry">
            <mxPoint x="520" y="330" as="sourcePoint" />
            <mxPoint x="570" y="280" as="targetPoint" />
          </mxGeometry>
        </mxCell>
        <mxCell id="idISao-2lY-n5F_Df8VK-46" value="" style="fontColor=#0066CC;verticalAlign=top;verticalLabelPosition=bottom;labelPosition=center;align=center;html=1;outlineConnect=0;fillColor=#66FFB3;strokeColor=#0000CC;gradientColor=none;gradientDirection=north;strokeWidth=2;shape=mxgraph.networks.server;" parent="1" vertex="1">
          <mxGeometry x="585" y="80" width="50" height="50" as="geometry" />
        </mxCell>
        <mxCell id="idISao-2lY-n5F_Df8VK-47" value="" style="endArrow=classic;startArrow=classic;html=1;rounded=0;" parent="1" source="idISao-2lY-n5F_Df8VK-17" target="idISao-2lY-n5F_Df8VK-46" edge="1">
          <mxGeometry width="50" height="50" relative="1" as="geometry">
            <mxPoint x="520" y="330" as="sourcePoint" />
            <mxPoint x="570" y="280" as="targetPoint" />
          </mxGeometry>
        </mxCell>
        <mxCell id="idISao-2lY-n5F_Df8VK-48" value="" style="endArrow=classic;startArrow=classic;html=1;rounded=0;" parent="1" source="idISao-2lY-n5F_Df8VK-17" target="idISao-2lY-n5F_Df8VK-19" edge="1">
          <mxGeometry width="50" height="50" relative="1" as="geometry">
            <mxPoint x="520" y="330" as="sourcePoint" />
            <mxPoint x="570" y="280" as="targetPoint" />
          </mxGeometry>
        </mxCell>
        <mxCell id="idISao-2lY-n5F_Df8VK-49" value="" style="fontColor=#0066CC;verticalAlign=top;verticalLabelPosition=bottom;labelPosition=center;align=center;html=1;outlineConnect=0;fillColor=#CCCCCC;strokeColor=#6881B3;gradientColor=none;gradientDirection=north;strokeWidth=2;shape=mxgraph.networks.pc;" parent="1" vertex="1">
          <mxGeometry x="290" y="510" width="40" height="40" as="geometry" />
        </mxCell>
        <mxCell id="idISao-2lY-n5F_Df8VK-50" value="" style="fontColor=#0066CC;verticalAlign=top;verticalLabelPosition=bottom;labelPosition=center;align=center;html=1;outlineConnect=0;fillColor=#CCCCCC;strokeColor=#6881B3;gradientColor=none;gradientDirection=north;strokeWidth=2;shape=mxgraph.networks.pc;" parent="1" vertex="1">
          <mxGeometry x="380" y="510" width="40" height="40" as="geometry" />
        </mxCell>
        <mxCell id="idISao-2lY-n5F_Df8VK-51" value="" style="endArrow=classic;startArrow=classic;html=1;rounded=0;entryX=0.5;entryY=1;entryDx=0;entryDy=0;entryPerimeter=0;" parent="1" source="idISao-2lY-n5F_Df8VK-25" target="idISao-2lY-n5F_Df8VK-6" edge="1">
          <mxGeometry width="50" height="50" relative="1" as="geometry">
            <mxPoint x="520" y="400" as="sourcePoint" />
            <mxPoint x="570" y="350" as="targetPoint" />
          </mxGeometry>
        </mxCell>
        <mxCell id="idISao-2lY-n5F_Df8VK-53" value="" style="endArrow=classic;startArrow=classic;html=1;rounded=0;" parent="1" source="idISao-2lY-n5F_Df8VK-50" edge="1">
          <mxGeometry width="50" height="50" relative="1" as="geometry">
            <mxPoint x="520" y="400" as="sourcePoint" />
            <mxPoint x="310" y="450" as="targetPoint" />
          </mxGeometry>
        </mxCell>
        <mxCell id="idISao-2lY-n5F_Df8VK-55" value="Cloud" style="text;html=1;align=center;verticalAlign=middle;resizable=0;points=[];autosize=1;strokeColor=none;fillColor=none;" parent="1" vertex="1">
          <mxGeometry x="85" y="60" width="50" height="20" as="geometry" />
        </mxCell>
        <mxCell id="idISao-2lY-n5F_Df8VK-56" value="Firewall&lt;br&gt;" style="text;html=1;align=center;verticalAlign=middle;resizable=0;points=[];autosize=1;strokeColor=none;fillColor=none;" parent="1" vertex="1">
          <mxGeometry x="180" y="95" width="60" height="20" as="geometry" />
        </mxCell>
        <mxCell id="idISao-2lY-n5F_Df8VK-57" value="BackboneSwitch" style="text;html=1;align=center;verticalAlign=middle;resizable=0;points=[];autosize=1;strokeColor=none;fillColor=none;" parent="1" vertex="1">
          <mxGeometry x="145" y="205" width="100" height="20" as="geometry" />
        </mxCell>
        <mxCell id="idISao-2lY-n5F_Df8VK-58" value="CoreRouter" style="text;html=1;align=center;verticalAlign=middle;resizable=0;points=[];autosize=1;strokeColor=none;fillColor=none;" parent="1" vertex="1">
          <mxGeometry x="170" y="325" width="80" height="20" as="geometry" />
        </mxCell>
        <mxCell id="idISao-2lY-n5F_Df8VK-59" value="HRSwitch&lt;br&gt;DEFAULT GATEWAY 192.168.3.1&lt;br&gt;" style="text;html=1;align=center;verticalAlign=middle;resizable=0;points=[];autosize=1;strokeColor=none;fillColor=none;" parent="1" vertex="1">
          <mxGeometry x="45" y="420" width="200" height="30" as="geometry" />
        </mxCell>
        <mxCell id="idISao-2lY-n5F_Df8VK-60" value="" style="endArrow=none;startArrow=classic;html=1;rounded=0;entryX=0.5;entryY=1;entryDx=0;entryDy=0;entryPerimeter=0;" parent="1" source="idISao-2lY-n5F_Df8VK-49" target="idISao-2lY-n5F_Df8VK-6" edge="1">
          <mxGeometry width="50" height="50" relative="1" as="geometry">
            <mxPoint x="310" y="510" as="sourcePoint" />
            <mxPoint x="310" y="450" as="targetPoint" />
          </mxGeometry>
        </mxCell>
        <mxCell id="idISao-2lY-n5F_Df8VK-61" value="CustExpSwitch &lt;br&gt;DEFAULT GATEWAY&lt;br&gt;&amp;nbsp;192.168.2.1" style="text;html=1;align=center;verticalAlign=middle;resizable=0;points=[];autosize=1;strokeColor=none;fillColor=none;" parent="1" vertex="1">
          <mxGeometry x="670" y="300" width="130" height="50" as="geometry" />
        </mxCell>
        <mxCell id="idISao-2lY-n5F_Df8VK-62" value="" style="fontColor=#0066CC;verticalAlign=top;verticalLabelPosition=bottom;labelPosition=center;align=center;html=1;outlineConnect=0;fillColor=#CCCCCC;strokeColor=#6881B3;gradientColor=none;gradientDirection=north;strokeWidth=2;shape=mxgraph.networks.pc;" parent="1" vertex="1">
          <mxGeometry x="450" y="440" width="40" height="40" as="geometry" />
        </mxCell>
        <mxCell id="idISao-2lY-n5F_Df8VK-63" value="" style="fontColor=#0066CC;verticalAlign=top;verticalLabelPosition=bottom;labelPosition=center;align=center;html=1;outlineConnect=0;fillColor=#CCCCCC;strokeColor=#6881B3;gradientColor=none;gradientDirection=north;strokeWidth=2;shape=mxgraph.networks.pc;" parent="1" vertex="1">
          <mxGeometry x="515" y="440" width="40" height="40" as="geometry" />
        </mxCell>
        <mxCell id="idISao-2lY-n5F_Df8VK-64" value="" style="fontColor=#0066CC;verticalAlign=top;verticalLabelPosition=bottom;labelPosition=center;align=center;html=1;outlineConnect=0;fillColor=#CCCCCC;strokeColor=#6881B3;gradientColor=none;gradientDirection=north;strokeWidth=2;shape=mxgraph.networks.pc;" parent="1" vertex="1">
          <mxGeometry x="580" y="440" width="40" height="40" as="geometry" />
        </mxCell>
        <mxCell id="idISao-2lY-n5F_Df8VK-65" value="" style="fontColor=#0066CC;verticalAlign=top;verticalLabelPosition=bottom;labelPosition=center;align=center;html=1;outlineConnect=0;fillColor=#CCCCCC;strokeColor=#6881B3;gradientColor=none;gradientDirection=north;strokeWidth=2;shape=mxgraph.networks.pc;" parent="1" vertex="1">
          <mxGeometry x="640" y="440" width="40" height="40" as="geometry" />
        </mxCell>
        <mxCell id="idISao-2lY-n5F_Df8VK-66" value="" style="fontColor=#0066CC;verticalAlign=top;verticalLabelPosition=bottom;labelPosition=center;align=center;html=1;outlineConnect=0;fillColor=#CCCCCC;strokeColor=#6881B3;gradientColor=none;gradientDirection=north;strokeWidth=2;shape=mxgraph.networks.pc;" parent="1" vertex="1">
          <mxGeometry x="700" y="440" width="40" height="40" as="geometry" />
        </mxCell>
        <mxCell id="idISao-2lY-n5F_Df8VK-67" value="" style="fontColor=#0066CC;verticalAlign=top;verticalLabelPosition=bottom;labelPosition=center;align=center;html=1;outlineConnect=0;fillColor=#CCCCCC;strokeColor=#6881B3;gradientColor=none;gradientDirection=north;strokeWidth=2;shape=mxgraph.networks.pc;" parent="1" vertex="1">
          <mxGeometry x="760" y="440" width="40" height="40" as="geometry" />
        </mxCell>
        <mxCell id="idISao-2lY-n5F_Df8VK-68" value="" style="endArrow=classic;startArrow=classic;html=1;rounded=0;exitX=0.5;exitY=0.07;exitDx=0;exitDy=0;exitPerimeter=0;entryX=0.5;entryY=1;entryDx=0;entryDy=0;entryPerimeter=0;" parent="1" source="idISao-2lY-n5F_Df8VK-62" target="idISao-2lY-n5F_Df8VK-15" edge="1">
          <mxGeometry width="50" height="50" relative="1" as="geometry">
            <mxPoint x="510" y="370" as="sourcePoint" />
            <mxPoint x="560" y="320" as="targetPoint" />
          </mxGeometry>
        </mxCell>
        <mxCell id="idISao-2lY-n5F_Df8VK-69" value="" style="endArrow=classic;startArrow=classic;html=1;rounded=0;exitX=0.5;exitY=0.07;exitDx=0;exitDy=0;exitPerimeter=0;entryX=0.5;entryY=1;entryDx=0;entryDy=0;entryPerimeter=0;" parent="1" source="idISao-2lY-n5F_Df8VK-63" target="idISao-2lY-n5F_Df8VK-15" edge="1">
          <mxGeometry width="50" height="50" relative="1" as="geometry">
            <mxPoint x="510" y="370" as="sourcePoint" />
            <mxPoint x="560" y="320" as="targetPoint" />
          </mxGeometry>
        </mxCell>
        <mxCell id="idISao-2lY-n5F_Df8VK-70" value="" style="endArrow=classic;startArrow=classic;html=1;rounded=0;exitX=0.5;exitY=0.07;exitDx=0;exitDy=0;exitPerimeter=0;entryX=0.5;entryY=1;entryDx=0;entryDy=0;entryPerimeter=0;" parent="1" source="idISao-2lY-n5F_Df8VK-64" target="idISao-2lY-n5F_Df8VK-15" edge="1">
          <mxGeometry width="50" height="50" relative="1" as="geometry">
            <mxPoint x="510" y="370" as="sourcePoint" />
            <mxPoint x="560" y="320" as="targetPoint" />
          </mxGeometry>
        </mxCell>
        <mxCell id="idISao-2lY-n5F_Df8VK-71" value="" style="endArrow=classic;startArrow=classic;html=1;rounded=0;exitX=0.5;exitY=0.07;exitDx=0;exitDy=0;exitPerimeter=0;entryX=0.5;entryY=1;entryDx=0;entryDy=0;entryPerimeter=0;" parent="1" source="idISao-2lY-n5F_Df8VK-65" target="idISao-2lY-n5F_Df8VK-15" edge="1">
          <mxGeometry width="50" height="50" relative="1" as="geometry">
            <mxPoint x="510" y="370" as="sourcePoint" />
            <mxPoint x="560" y="320" as="targetPoint" />
          </mxGeometry>
        </mxCell>
        <mxCell id="idISao-2lY-n5F_Df8VK-72" value="" style="endArrow=classic;startArrow=classic;html=1;rounded=0;exitX=0.5;exitY=0.07;exitDx=0;exitDy=0;exitPerimeter=0;entryX=0.5;entryY=1;entryDx=0;entryDy=0;entryPerimeter=0;" parent="1" source="idISao-2lY-n5F_Df8VK-66" target="idISao-2lY-n5F_Df8VK-15" edge="1">
          <mxGeometry width="50" height="50" relative="1" as="geometry">
            <mxPoint x="510" y="370" as="sourcePoint" />
            <mxPoint x="560" y="320" as="targetPoint" />
          </mxGeometry>
        </mxCell>
        <mxCell id="idISao-2lY-n5F_Df8VK-73" value="" style="endArrow=classic;startArrow=classic;html=1;rounded=0;exitX=0.5;exitY=0.07;exitDx=0;exitDy=0;exitPerimeter=0;entryX=0.5;entryY=1;entryDx=0;entryDy=0;entryPerimeter=0;" parent="1" source="idISao-2lY-n5F_Df8VK-67" target="idISao-2lY-n5F_Df8VK-15" edge="1">
          <mxGeometry width="50" height="50" relative="1" as="geometry">
            <mxPoint x="510" y="370" as="sourcePoint" />
            <mxPoint x="560" y="320" as="targetPoint" />
          </mxGeometry>
        </mxCell>
        <mxCell id="idISao-2lY-n5F_Df8VK-75" value="" style="endArrow=classic;startArrow=classic;html=1;rounded=0;exitX=1;exitY=0.5;exitDx=0;exitDy=0;exitPerimeter=0;entryX=0;entryY=0.5;entryDx=0;entryDy=0;entryPerimeter=0;" parent="1" source="idISao-2lY-n5F_Df8VK-3" target="idISao-2lY-n5F_Df8VK-5" edge="1">
          <mxGeometry width="50" height="50" relative="1" as="geometry">
            <mxPoint x="510" y="310" as="sourcePoint" />
            <mxPoint x="560" y="260" as="targetPoint" />
          </mxGeometry>
        </mxCell>
        <mxCell id="idISao-2lY-n5F_Df8VK-76" value="ServerRouter" style="text;html=1;align=center;verticalAlign=middle;resizable=0;points=[];autosize=1;strokeColor=none;fillColor=none;" parent="1" vertex="1">
          <mxGeometry x="460" y="230" width="90" height="20" as="geometry" />
        </mxCell>
        <mxCell id="idISao-2lY-n5F_Df8VK-77" value="SeverSwitch&lt;br&gt;DEFAULT GATEWAY 192.168.4.1&lt;br&gt;" style="text;html=1;align=center;verticalAlign=middle;resizable=0;points=[];autosize=1;strokeColor=none;fillColor=none;" parent="1" vertex="1">
          <mxGeometry x="620" y="230" width="200" height="30" as="geometry" />
        </mxCell>
        <mxCell id="idISao-2lY-n5F_Df8VK-78" value="AuthServer" style="text;html=1;align=center;verticalAlign=middle;resizable=0;points=[];autosize=1;strokeColor=none;fillColor=none;" parent="1" vertex="1">
          <mxGeometry x="570" y="60" width="80" height="20" as="geometry" />
        </mxCell>
        <mxCell id="idISao-2lY-n5F_Df8VK-79" value="WebServer" style="text;html=1;align=center;verticalAlign=middle;resizable=0;points=[];autosize=1;strokeColor=none;fillColor=none;" parent="1" vertex="1">
          <mxGeometry x="740" y="60" width="80" height="20" as="geometry" />
        </mxCell>
        <mxCell id="idISao-2lY-n5F_Df8VK-81" value="192.168.1.1&lt;br&gt;" style="text;html=1;align=center;verticalAlign=middle;resizable=0;points=[];autosize=1;strokeColor=none;fillColor=none;" parent="1" vertex="1">
          <mxGeometry x="270" y="130" width="80" height="20" as="geometry" />
        </mxCell>
        <mxCell id="idISao-2lY-n5F_Df8VK-82" value="" style="endArrow=none;startArrow=classic;html=1;rounded=0;" parent="1" target="idISao-2lY-n5F_Df8VK-81" edge="1">
          <mxGeometry width="50" height="50" relative="1" as="geometry">
            <mxPoint x="310" y="200" as="sourcePoint" />
            <mxPoint x="310" y="120" as="targetPoint" />
          </mxGeometry>
        </mxCell>
        <mxCell id="idISao-2lY-n5F_Df8VK-83" value="192.168.4.1&lt;br&gt;" style="text;html=1;align=center;verticalAlign=middle;resizable=0;points=[];autosize=1;strokeColor=none;fillColor=none;" parent="1" vertex="1">
          <mxGeometry x="510" y="250" width="80" height="20" as="geometry" />
        </mxCell>
        <mxCell id="idISao-2lY-n5F_Df8VK-84" value="192.168.1.3&lt;br&gt;" style="text;html=1;align=center;verticalAlign=middle;resizable=0;points=[];autosize=1;strokeColor=none;fillColor=none;" parent="1" vertex="1">
          <mxGeometry x="410" y="250" width="80" height="20" as="geometry" />
        </mxCell>
        <mxCell id="idISao-2lY-n5F_Df8VK-85" value="192.168.3.1&lt;br&gt;" style="text;html=1;align=center;verticalAlign=middle;resizable=0;points=[];autosize=1;strokeColor=none;fillColor=none;" parent="1" vertex="1">
          <mxGeometry x="230" y="360" width="80" height="20" as="geometry" />
        </mxCell>
        <mxCell id="idISao-2lY-n5F_Df8VK-86" value="192.168.2.1&lt;br&gt;" style="text;html=1;align=center;verticalAlign=middle;resizable=0;points=[];autosize=1;strokeColor=none;fillColor=none;" parent="1" vertex="1">
          <mxGeometry x="360" y="340" width="80" height="20" as="geometry" />
        </mxCell>
        <mxCell id="idISao-2lY-n5F_Df8VK-87" value="192.168.1.2&lt;br&gt;" style="text;html=1;align=center;verticalAlign=middle;resizable=0;points=[];autosize=1;strokeColor=none;fillColor=none;" parent="1" vertex="1">
          <mxGeometry x="230" y="290" width="80" height="20" as="geometry" />
        </mxCell>
        <mxCell id="idISao-2lY-n5F_Df8VK-88" value="192.168.4.3&lt;br&gt;" style="text;html=1;align=center;verticalAlign=middle;resizable=0;points=[];autosize=1;strokeColor=none;fillColor=none;" parent="1" vertex="1">
          <mxGeometry x="540" y="130" width="80" height="20" as="geometry" />
        </mxCell>
        <mxCell id="idISao-2lY-n5F_Df8VK-89" value="192.168.4.2&lt;br&gt;" style="text;html=1;align=center;verticalAlign=middle;resizable=0;points=[];autosize=1;strokeColor=none;fillColor=none;" parent="1" vertex="1">
          <mxGeometry x="750" y="130" width="80" height="20" as="geometry" />
        </mxCell>
        <mxCell id="idISao-2lY-n5F_Df8VK-90" value="CEPC1" style="text;html=1;align=center;verticalAlign=middle;resizable=0;points=[];autosize=1;strokeColor=none;fillColor=none;" parent="1" vertex="1">
          <mxGeometry x="440" y="480" width="60" height="20" as="geometry" />
        </mxCell>
        <mxCell id="idISao-2lY-n5F_Df8VK-91" value="CEPC2" style="text;html=1;align=center;verticalAlign=middle;resizable=0;points=[];autosize=1;strokeColor=none;fillColor=none;" parent="1" vertex="1">
          <mxGeometry x="505" y="480" width="60" height="20" as="geometry" />
        </mxCell>
        <mxCell id="idISao-2lY-n5F_Df8VK-92" value="CEPC3" style="text;html=1;align=center;verticalAlign=middle;resizable=0;points=[];autosize=1;strokeColor=none;fillColor=none;" parent="1" vertex="1">
          <mxGeometry x="570" y="480" width="60" height="20" as="geometry" />
        </mxCell>
        <mxCell id="idISao-2lY-n5F_Df8VK-93" value="CEPC4" style="text;html=1;align=center;verticalAlign=middle;resizable=0;points=[];autosize=1;strokeColor=none;fillColor=none;" parent="1" vertex="1">
          <mxGeometry x="630" y="480" width="60" height="20" as="geometry" />
        </mxCell>
        <mxCell id="idISao-2lY-n5F_Df8VK-94" value="CEPC5" style="text;html=1;align=center;verticalAlign=middle;resizable=0;points=[];autosize=1;strokeColor=none;fillColor=none;" parent="1" vertex="1">
          <mxGeometry x="690" y="480" width="60" height="20" as="geometry" />
        </mxCell>
        <mxCell id="idISao-2lY-n5F_Df8VK-95" value="CEPC6" style="text;html=1;align=center;verticalAlign=middle;resizable=0;points=[];autosize=1;strokeColor=none;fillColor=none;" parent="1" vertex="1">
          <mxGeometry x="750" y="480" width="60" height="20" as="geometry" />
        </mxCell>
        <mxCell id="idISao-2lY-n5F_Df8VK-96" value="HRPC1" style="text;html=1;align=center;verticalAlign=middle;resizable=0;points=[];autosize=1;strokeColor=none;fillColor=none;" parent="1" vertex="1">
          <mxGeometry x="190" y="550" width="60" height="20" as="geometry" />
        </mxCell>
        <mxCell id="idISao-2lY-n5F_Df8VK-97" value="HRPC2" style="text;html=1;align=center;verticalAlign=middle;resizable=0;points=[];autosize=1;strokeColor=none;fillColor=none;" parent="1" vertex="1">
          <mxGeometry x="280" y="550" width="60" height="20" as="geometry" />
        </mxCell>
        <mxCell id="idISao-2lY-n5F_Df8VK-98" value="HRPC3&amp;nbsp;" style="text;html=1;align=center;verticalAlign=middle;resizable=0;points=[];autosize=1;strokeColor=none;fillColor=none;" parent="1" vertex="1">
          <mxGeometry x="370" y="550" width="60" height="20" as="geometry" />
        </mxCell>
        <mxCell id="idISao-2lY-n5F_Df8VK-99" value="HRPC3 192.168.3.13" style="text;html=1;align=center;verticalAlign=middle;resizable=0;points=[];autosize=1;strokeColor=none;fillColor=none;" parent="1" vertex="1">
          <mxGeometry x="200" y="640" width="130" height="20" as="geometry" />
        </mxCell>
        <mxCell id="idISao-2lY-n5F_Df8VK-100" value="HRPC2 192.168.3.12" style="text;html=1;align=center;verticalAlign=middle;resizable=0;points=[];autosize=1;strokeColor=none;fillColor=none;" parent="1" vertex="1">
          <mxGeometry x="200" y="610" width="130" height="20" as="geometry" />
        </mxCell>
        <mxCell id="idISao-2lY-n5F_Df8VK-101" value="HRPC1&amp;nbsp;192.168.3.11" style="text;html=1;align=center;verticalAlign=middle;resizable=0;points=[];autosize=1;strokeColor=none;fillColor=none;" parent="1" vertex="1">
          <mxGeometry x="200" y="580" width="130" height="20" as="geometry" />
        </mxCell>
        <mxCell id="idISao-2lY-n5F_Df8VK-102" value="CustExpPC1 192.168.2.11" style="text;html=1;align=center;verticalAlign=middle;resizable=0;points=[];autosize=1;strokeColor=none;fillColor=none;" parent="1" vertex="1">
          <mxGeometry x="640" y="520" width="160" height="20" as="geometry" />
        </mxCell>
        <mxCell id="idISao-2lY-n5F_Df8VK-103" value="CustExpPC2 192.168.2.12&lt;br&gt;" style="text;html=1;align=center;verticalAlign=middle;resizable=0;points=[];autosize=1;strokeColor=none;fillColor=none;" parent="1" vertex="1">
          <mxGeometry x="640" y="550" width="160" height="20" as="geometry" />
        </mxCell>
        <mxCell id="idISao-2lY-n5F_Df8VK-104" value="CustExpPC3 192.168.2.13&lt;br&gt;" style="text;html=1;align=center;verticalAlign=middle;resizable=0;points=[];autosize=1;strokeColor=none;fillColor=none;" parent="1" vertex="1">
          <mxGeometry x="640" y="580" width="160" height="20" as="geometry" />
        </mxCell>
        <mxCell id="idISao-2lY-n5F_Df8VK-105" value="CustExpPC5 192.168.2.15&lt;br&gt;" style="text;html=1;align=center;verticalAlign=middle;resizable=0;points=[];autosize=1;strokeColor=none;fillColor=none;" parent="1" vertex="1">
          <mxGeometry x="640" y="640" width="160" height="20" as="geometry" />
        </mxCell>
        <mxCell id="idISao-2lY-n5F_Df8VK-106" value="CustExpPC6 192.168.2.16&lt;br&gt;" style="text;html=1;align=center;verticalAlign=middle;resizable=0;points=[];autosize=1;strokeColor=none;fillColor=none;" parent="1" vertex="1">
          <mxGeometry x="640" y="670" width="160" height="20" as="geometry" />
        </mxCell>
        <mxCell id="idISao-2lY-n5F_Df8VK-107" value="CustExpPC4 192.168.2.14&lt;br&gt;" style="text;html=1;align=center;verticalAlign=middle;resizable=0;points=[];autosize=1;strokeColor=none;fillColor=none;" parent="1" vertex="1">
          <mxGeometry x="640" y="610" width="160" height="20" as="geometry" />
        </mxCell>
        <mxCell id="idISao-2lY-n5F_Df8VK-108" value="VLAN 2&lt;br&gt;" style="text;html=1;align=center;verticalAlign=middle;resizable=0;points=[];autosize=1;strokeColor=none;fillColor=none;" parent="1" vertex="1">
          <mxGeometry x="705" y="350" width="60" height="20" as="geometry" />
        </mxCell>
        <mxCell id="idISao-2lY-n5F_Df8VK-109" value="VLAN 3&lt;br&gt;" style="text;html=1;align=center;verticalAlign=middle;resizable=0;points=[];autosize=1;strokeColor=none;fillColor=none;" parent="1" vertex="1">
          <mxGeometry x="115" y="450" width="60" height="20" as="geometry" />
        </mxCell>
        <mxCell id="idISao-2lY-n5F_Df8VK-110" value="VLAN 4&lt;br&gt;" style="text;html=1;align=center;verticalAlign=middle;resizable=0;points=[];autosize=1;strokeColor=none;fillColor=none;" parent="1" vertex="1">
          <mxGeometry x="680" y="260" width="60" height="20" as="geometry" />
        </mxCell>
        <mxCell id="idISao-2lY-n5F_Df8VK-111" value="VLAN 1&lt;br&gt;" style="text;html=1;align=center;verticalAlign=middle;resizable=0;points=[];autosize=1;strokeColor=none;fillColor=none;" parent="1" vertex="1">
          <mxGeometry x="165" y="225" width="60" height="20" as="geometry" />
        </mxCell>
        <mxCell id="idISao-2lY-n5F_Df8VK-116" value="Daniel Bilbraut&lt;br&gt;CYB 310&lt;br&gt;5-4 Project Three&amp;nbsp;&lt;br&gt;Network Reconfiguration&lt;br&gt;Pre-Planning&lt;br&gt;" style="text;html=1;align=center;verticalAlign=middle;resizable=0;points=[];autosize=1;strokeColor=none;fillColor=none;" parent="1" vertex="1">
          <mxGeometry x="35" y="660" width="150" height="70" as="geometry" />
        </mxCell>
      </root>
    </mxGraphModel>
  </diagram>
</mxfile>
